<svg width="1110" height="23" viewBox="0 0 1110 23" fill="none" xmlns="http://www.w3.org/2000/svg">
<g clip-path="url(#clip0_0_152)">
<path fill-rule="evenodd" clip-rule="evenodd" d="M1058.69 4H1064.31C1066.9 4 1069 6.09906 1069 8.6875V14.3125C1069 16.9009 1066.9 19 1064.31 19H1058.69C1056.1 19 1054 16.9009 1054 14.3125V8.6875C1054 6.09906 1056.1 4 1058.69 4ZM1064.31 17.5938C1066.12 17.5938 1067.59 16.1219 1067.59 14.3125V8.6875C1067.59 6.87812 1066.12 5.40625 1064.31 5.40625H1058.69C1056.88 5.40625 1055.41 6.87812 1055.41 8.6875V14.3125C1055.41 16.1219 1056.88 17.5938 1058.69 17.5938H1064.31Z" fill="black"/>
<path fill-rule="evenodd" clip-rule="evenodd" d="M1057.76 11.5171C1057.76 9.44143 1059.44 7.75854 1061.52 7.75854C1063.59 7.75854 1065.28 9.44143 1065.28 11.5171C1065.28 13.5927 1063.59 15.2756 1061.52 15.2756C1059.44 15.2756 1057.76 13.5927 1057.76 11.5171ZM1059.17 11.5171C1059.17 12.8119 1060.22 13.8662 1061.52 13.8662C1062.81 13.8662 1063.87 12.8119 1063.87 11.5171C1063.87 10.2213 1062.81 9.168 1061.52 9.168C1060.22 9.168 1059.17 10.2213 1059.17 11.5171Z" fill="black"/>
<path fill-rule="evenodd" clip-rule="evenodd" d="M1065.53 7.96354C1065.81 7.96354 1066.03 7.74173 1066.03 7.4681C1066.03 7.19447 1065.81 6.97266 1065.53 6.97266C1065.26 6.97266 1065.04 7.19447 1065.04 7.4681C1065.04 7.74173 1065.26 7.96354 1065.53 7.96354Z" fill="black"/>
<path fill-rule="evenodd" clip-rule="evenodd" d="M1110 5.65598C1109.34 5.937 1108.63 6.12758 1107.88 6.21266C1108.64 5.7755 1109.23 5.0821 1109.5 4.25841C1108.79 4.66324 1108 4.95721 1107.16 5.11657C1106.48 4.42854 1105.52 4 1104.46 4C1102.42 4 1100.77 5.58278 1100.77 7.5338C1100.77 7.81051 1100.8 8.08076 1100.86 8.3392C1097.8 8.19167 1095.08 6.7844 1093.25 4.64601C1092.94 5.16716 1092.75 5.7744 1092.75 6.42261C1092.75 7.64901 1093.41 8.73111 1094.4 9.3642C1093.79 9.34483 1093.22 9.18548 1092.72 8.9206V8.96474C1092.72 10.6767 1094 12.1055 1095.69 12.4307C1095.38 12.5104 1095.05 12.5545 1094.71 12.5545C1094.47 12.5545 1094.24 12.5319 1094.02 12.4889C1094.49 13.894 1095.85 14.9158 1097.47 14.9438C1096.2 15.8913 1094.61 16.4544 1092.88 16.4544C1092.58 16.4544 1092.29 16.4372 1092 16.406C1093.63 17.4106 1095.57 17.9963 1097.66 17.9963C1104.45 17.9963 1108.17 12.6105 1108.17 7.93974L1108.15 7.48214C1108.88 6.98681 1109.51 6.36447 1110 5.65598Z" fill="black"/>
<g filter="url(#filter0_d_0_152)">
<path fill-rule="evenodd" clip-rule="evenodd" d="M1028.98 7.73131C1028.31 6.58352 1027.4 5.67474 1026.25 5.00479C1025.1 4.33489 1023.85 4 1022.49 4C1021.13 4 1019.88 4.33489 1018.73 5.00479C1017.58 5.67464 1016.67 6.58342 1016 7.73131C1015.33 8.87927 1015 10.1329 1015 11.492C1015 12.8513 1015.33 14.1047 1016 15.2527C1016.67 16.4005 1017.58 17.3093 1018.73 17.9793C1019.88 18.6492 1021.13 18.9841 1022.49 18.9841C1023.85 18.9841 1025.1 18.6492 1026.25 17.9793C1027.4 17.3095 1028.31 16.4005 1028.98 15.2527C1029.65 14.1048 1029.98 12.8512 1029.98 11.492C1029.98 10.1327 1029.65 8.8791 1028.98 7.73131ZM1022.49 5.09261C1024.1 5.09261 1025.51 5.62588 1026.72 6.69238L1026.59 6.86298C1026.55 6.93139 1026.42 7.06294 1026.23 7.25814C1026.03 7.45318 1025.82 7.63864 1025.59 7.8142C1025.36 7.98983 1025.04 8.18978 1024.65 8.41417C1024.25 8.63855 1023.83 8.8354 1023.38 9.00446C1022.63 7.62559 1021.83 6.38343 1020.98 5.2779C1021.49 5.15435 1022 5.09261 1022.49 5.09261ZM1019.76 5.70706C1018.86 6.12973 1018.1 6.73465 1017.48 7.52141C1016.85 8.30835 1016.44 9.19294 1016.23 10.1749C1018.19 10.175 1020.16 9.91485 1022.14 9.39457C1021.36 8.00937 1020.57 6.78013 1019.76 5.70706ZM1016.52 13.7993C1016.24 13.0677 1016.09 12.2986 1016.09 11.492C1016.09 11.4009 1016.1 11.3326 1016.1 11.2872C1018.46 11.2872 1020.65 10.9848 1022.67 10.3799C1022.88 10.7831 1023.05 11.144 1023.18 11.4628C1023.16 11.4758 1023.12 11.4903 1023.06 11.5066C1023 11.5229 1022.96 11.5342 1022.93 11.5408L1022.57 11.6676C1022.32 11.7587 1022 11.9148 1021.6 12.1358C1021.2 12.3571 1020.78 12.6204 1020.33 12.9261C1019.88 13.2319 1019.41 13.6367 1018.94 14.1409C1018.46 14.6449 1018.06 15.1861 1017.73 15.7649C1017.21 15.1861 1016.81 14.5308 1016.52 13.7993ZM1018.41 16.4283C1019.61 17.4037 1020.97 17.8916 1022.49 17.8916C1023.35 17.8915 1024.18 17.7225 1024.99 17.3841C1024.72 15.8168 1024.26 14.1973 1023.62 12.5259H1023.6L1023.58 12.5357C1023.48 12.5748 1023.34 12.6286 1023.17 12.6969C1022.99 12.7649 1022.66 12.9244 1022.18 13.1746C1021.7 13.4253 1021.25 13.6919 1020.84 13.9747C1020.43 14.2576 1020.01 14.6301 1019.57 15.0918C1019.12 15.5535 1018.79 16.0347 1018.56 16.5357L1018.41 16.4283ZM1027.88 14.9503C1027.4 15.695 1026.79 16.3114 1026.07 16.799C1025.81 15.3032 1025.39 13.778 1024.82 12.2237C1026.12 12.0219 1027.45 12.1164 1028.81 12.5064C1028.67 13.3909 1028.36 14.2057 1027.88 14.9503ZM1028.55 11.3604C1028.65 11.3766 1028.73 11.3913 1028.79 11.4043L1028.89 11.4237C1028.87 9.91478 1028.39 8.58163 1027.44 7.424L1027.43 7.43384C1027.37 7.51178 1027.31 7.59139 1027.24 7.67285C1027.18 7.75417 1027.04 7.8988 1026.82 8.10689C1026.6 8.31494 1026.37 8.51169 1026.13 8.69722C1025.88 8.88255 1025.56 9.09378 1025.15 9.33122C1024.74 9.56866 1024.32 9.77831 1023.87 9.96054C1024.03 10.3051 1024.17 10.6141 1024.3 10.8872C1024.31 10.9262 1024.33 10.9832 1024.36 11.058C1024.39 11.1328 1024.41 11.1865 1024.43 11.219C1024.67 11.1866 1024.91 11.1635 1025.16 11.1507C1025.41 11.1378 1025.65 11.1312 1025.88 11.1312C1026.1 11.1312 1026.33 11.1361 1026.55 11.1458C1026.77 11.1557 1026.98 11.1686 1027.17 11.1849C1027.37 11.2012 1027.55 11.219 1027.73 11.2385C1027.9 11.2581 1028.05 11.2791 1028.19 11.3019C1028.33 11.3246 1028.45 11.3443 1028.55 11.3604Z" fill="black"/>
</g>
<path d="M861.308 18.18C859.988 18.18 858.854 17.916 857.906 17.388C856.97 16.848 856.25 16.092 855.746 15.12C855.242 14.136 854.99 12.978 854.99 11.646C854.99 10.314 855.242 9.162 855.746 8.19C856.25 7.218 856.97 6.468 857.906 5.94C858.854 5.4 859.988 5.13 861.308 5.13C862.196 5.13 862.994 5.256 863.702 5.508C864.422 5.76 865.04 6.132 865.556 6.624L864.8 8.46C864.236 8.004 863.69 7.68 863.162 7.488C862.646 7.284 862.052 7.182 861.38 7.182C860.096 7.182 859.112 7.572 858.428 8.352C857.756 9.12 857.42 10.218 857.42 11.646C857.42 13.074 857.756 14.178 858.428 14.958C859.112 15.738 860.096 16.128 861.38 16.128C862.052 16.128 862.646 16.032 863.162 15.84C863.69 15.636 864.236 15.3 864.8 14.832L865.556 16.668C865.04 17.148 864.422 17.52 863.702 17.784C862.994 18.048 862.196 18.18 861.308 18.18ZM870.671 18.18C869.735 18.18 868.925 17.988 868.241 17.604C867.557 17.22 867.023 16.674 866.639 15.966C866.267 15.258 866.081 14.418 866.081 13.446C866.081 12.474 866.267 11.64 866.639 10.944C867.023 10.236 867.557 9.69 868.241 9.306C868.925 8.922 869.735 8.73 870.671 8.73C871.607 8.73 872.417 8.922 873.101 9.306C873.797 9.69 874.331 10.236 874.703 10.944C875.087 11.64 875.279 12.474 875.279 13.446C875.279 14.418 875.087 15.258 874.703 15.966C874.331 16.674 873.797 17.22 873.101 17.604C872.417 17.988 871.607 18.18 870.671 18.18ZM870.671 16.452C871.379 16.452 871.943 16.206 872.363 15.714C872.783 15.21 872.993 14.454 872.993 13.446C872.993 12.438 872.783 11.688 872.363 11.196C871.943 10.704 871.379 10.458 870.671 10.458C869.963 10.458 869.399 10.704 868.979 11.196C868.559 11.688 868.349 12.438 868.349 13.446C868.349 14.454 868.559 15.21 868.979 15.714C869.399 16.206 869.963 16.452 870.671 16.452ZM876.873 18V11.178C876.873 10.806 876.861 10.428 876.837 10.044C876.813 9.66 876.777 9.282 876.729 8.91H878.907L879.087 10.71H878.871C879.159 10.074 879.585 9.588 880.149 9.252C880.713 8.904 881.367 8.73 882.111 8.73C883.179 8.73 883.983 9.03 884.523 9.63C885.063 10.23 885.333 11.166 885.333 12.438V18H883.083V12.546C883.083 11.814 882.939 11.292 882.651 10.98C882.375 10.656 881.955 10.494 881.391 10.494C880.695 10.494 880.143 10.71 879.735 11.142C879.327 11.574 879.123 12.15 879.123 12.87V18H876.873ZM891.261 18.18C890.181 18.18 889.365 17.898 888.813 17.334C888.261 16.77 887.985 15.924 887.985 14.796V10.602H886.239V8.91H887.985V6.588L890.235 6.012V8.91H892.665V10.602H890.235V14.652C890.235 15.276 890.355 15.714 890.595 15.966C890.835 16.218 891.165 16.344 891.585 16.344C891.813 16.344 892.005 16.326 892.161 16.29C892.329 16.254 892.491 16.206 892.647 16.146V17.928C892.443 18.012 892.215 18.072 891.963 18.108C891.723 18.156 891.489 18.18 891.261 18.18ZM897.357 18.18C896.565 18.18 895.869 17.994 895.269 17.622C894.669 17.238 894.201 16.692 893.865 15.984C893.529 15.276 893.361 14.43 893.361 13.446C893.361 12.462 893.529 11.622 893.865 10.926C894.201 10.218 894.669 9.678 895.269 9.306C895.869 8.922 896.565 8.73 897.357 8.73C898.125 8.73 898.797 8.922 899.373 9.306C899.961 9.678 900.351 10.182 900.543 10.818H900.345L900.543 8.91H902.703C902.667 9.282 902.631 9.66 902.595 10.044C902.571 10.428 902.559 10.806 902.559 11.178V18H900.327L900.309 16.128H900.525C900.333 16.752 899.943 17.25 899.355 17.622C898.767 17.994 898.101 18.18 897.357 18.18ZM897.987 16.452C898.695 16.452 899.265 16.206 899.697 15.714C900.129 15.21 900.345 14.454 900.345 13.446C900.345 12.438 900.129 11.688 899.697 11.196C899.265 10.704 898.695 10.458 897.987 10.458C897.279 10.458 896.709 10.704 896.277 11.196C895.845 11.688 895.629 12.438 895.629 13.446C895.629 14.454 895.839 15.21 896.259 15.714C896.691 16.206 897.267 16.452 897.987 16.452ZM908.839 18.18C907.903 18.18 907.081 17.988 906.373 17.604C905.677 17.22 905.137 16.674 904.753 15.966C904.369 15.246 904.177 14.394 904.177 13.41C904.177 12.426 904.369 11.586 904.753 10.89C905.149 10.194 905.695 9.66 906.391 9.288C907.087 8.916 907.903 8.73 908.839 8.73C909.439 8.73 910.021 8.826 910.585 9.018C911.161 9.198 911.629 9.462 911.989 9.81L911.305 11.376C910.981 11.076 910.615 10.854 910.207 10.71C909.811 10.554 909.421 10.476 909.037 10.476C908.233 10.476 907.603 10.728 907.147 11.232C906.703 11.736 906.481 12.468 906.481 13.428C906.481 14.388 906.703 15.126 907.147 15.642C907.603 16.158 908.233 16.416 909.037 16.416C909.409 16.416 909.793 16.344 910.189 16.2C910.597 16.056 910.969 15.834 911.305 15.534L911.989 17.082C911.617 17.43 911.143 17.7 910.567 17.892C910.003 18.084 909.427 18.18 908.839 18.18ZM917.31 18.18C916.23 18.18 915.414 17.898 914.862 17.334C914.31 16.77 914.034 15.924 914.034 14.796V10.602H912.288V8.91H914.034V6.588L916.284 6.012V8.91H918.714V10.602H916.284V14.652C916.284 15.276 916.404 15.714 916.644 15.966C916.884 16.218 917.214 16.344 917.634 16.344C917.862 16.344 918.054 16.326 918.21 16.29C918.378 16.254 918.54 16.206 918.696 16.146V17.928C918.492 18.012 918.264 18.072 918.012 18.108C917.772 18.156 917.538 18.18 917.31 18.18Z" fill="#111111"/>
<path d="M758.404 18V5.31H764.038C765.43 5.31 766.492 5.646 767.224 6.318C767.956 6.99 768.322 7.914 768.322 9.09C768.322 10.254 767.956 11.178 767.224 11.862C766.492 12.546 765.43 12.888 764.038 12.888H760.726V18H758.404ZM760.726 11.052H763.768C764.536 11.052 765.112 10.884 765.496 10.548C765.88 10.2 766.072 9.714 766.072 9.09C766.072 8.466 765.88 7.986 765.496 7.65C765.112 7.302 764.536 7.128 763.768 7.128H760.726V11.052ZM769.672 18V11.232C769.672 10.848 769.66 10.458 769.636 10.062C769.624 9.666 769.594 9.282 769.546 8.91H771.724L771.976 11.394H771.616C771.736 10.794 771.934 10.296 772.21 9.9C772.498 9.504 772.846 9.21 773.254 9.018C773.662 8.826 774.106 8.73 774.586 8.73C774.802 8.73 774.976 8.742 775.108 8.766C775.24 8.778 775.372 8.808 775.504 8.856L775.486 10.836C775.258 10.74 775.06 10.68 774.892 10.656C774.736 10.632 774.538 10.62 774.298 10.62C773.782 10.62 773.344 10.728 772.984 10.944C772.636 11.16 772.372 11.46 772.192 11.844C772.024 12.228 771.94 12.666 771.94 13.158V18H769.672ZM780.374 18.18C779.438 18.18 778.628 17.988 777.944 17.604C777.26 17.22 776.726 16.674 776.342 15.966C775.97 15.258 775.784 14.418 775.784 13.446C775.784 12.474 775.97 11.64 776.342 10.944C776.726 10.236 777.26 9.69 777.944 9.306C778.628 8.922 779.438 8.73 780.374 8.73C781.31 8.73 782.12 8.922 782.804 9.306C783.5 9.69 784.034 10.236 784.406 10.944C784.79 11.64 784.982 12.474 784.982 13.446C784.982 14.418 784.79 15.258 784.406 15.966C784.034 16.674 783.5 17.22 782.804 17.604C782.12 17.988 781.31 18.18 780.374 18.18ZM780.374 16.452C781.082 16.452 781.646 16.206 782.066 15.714C782.486 15.21 782.696 14.454 782.696 13.446C782.696 12.438 782.486 11.688 782.066 11.196C781.646 10.704 781.082 10.458 780.374 10.458C779.666 10.458 779.102 10.704 778.682 11.196C778.262 11.688 778.052 12.438 778.052 13.446C778.052 14.454 778.262 15.21 778.682 15.714C779.102 16.206 779.666 16.452 780.374 16.452ZM785.676 21.996C785.448 21.996 785.202 21.978 784.938 21.942C784.662 21.906 784.422 21.846 784.218 21.762V19.98C784.374 20.028 784.542 20.07 784.722 20.106C784.902 20.142 785.076 20.16 785.244 20.16C785.676 20.16 786.012 20.028 786.252 19.764C786.504 19.5 786.63 19.056 786.63 18.432V8.91H788.88V18.558C788.88 19.686 788.622 20.538 788.106 21.114C787.59 21.702 786.78 21.996 785.676 21.996ZM786.486 7.2V5.004H788.988V7.2H786.486ZM795.315 18.18C793.791 18.18 792.597 17.76 791.733 16.92C790.869 16.08 790.437 14.928 790.437 13.464C790.437 12.516 790.623 11.688 790.995 10.98C791.367 10.272 791.883 9.72 792.543 9.324C793.215 8.928 793.995 8.73 794.883 8.73C795.759 8.73 796.491 8.916 797.079 9.288C797.667 9.66 798.111 10.182 798.411 10.854C798.723 11.526 798.879 12.312 798.879 13.212V13.806H792.255V12.618H797.277L796.971 12.87C796.971 12.03 796.791 11.388 796.431 10.944C796.083 10.5 795.573 10.278 794.901 10.278C794.157 10.278 793.581 10.542 793.173 11.07C792.777 11.598 792.579 12.336 792.579 13.284V13.518C792.579 14.502 792.819 15.24 793.299 15.732C793.791 16.212 794.481 16.452 795.369 16.452C795.885 16.452 796.365 16.386 796.809 16.254C797.265 16.11 797.697 15.882 798.105 15.57L798.771 17.082C798.339 17.43 797.823 17.7 797.223 17.892C796.623 18.084 795.987 18.18 795.315 18.18ZM804.615 18.18C803.679 18.18 802.857 17.988 802.149 17.604C801.453 17.22 800.913 16.674 800.529 15.966C800.145 15.246 799.953 14.394 799.953 13.41C799.953 12.426 800.145 11.586 800.529 10.89C800.925 10.194 801.471 9.66 802.167 9.288C802.863 8.916 803.679 8.73 804.615 8.73C805.215 8.73 805.797 8.826 806.361 9.018C806.937 9.198 807.405 9.462 807.765 9.81L807.081 11.376C806.757 11.076 806.391 10.854 805.983 10.71C805.587 10.554 805.197 10.476 804.813 10.476C804.009 10.476 803.379 10.728 802.923 11.232C802.479 11.736 802.257 12.468 802.257 13.428C802.257 14.388 802.479 15.126 802.923 15.642C803.379 16.158 804.009 16.416 804.813 16.416C805.185 16.416 805.569 16.344 805.965 16.2C806.373 16.056 806.745 15.834 807.081 15.534L807.765 17.082C807.393 17.43 806.919 17.7 806.343 17.892C805.779 18.084 805.203 18.18 804.615 18.18ZM813.086 18.18C812.006 18.18 811.19 17.898 810.638 17.334C810.086 16.77 809.81 15.924 809.81 14.796V10.602H808.064V8.91H809.81V6.588L812.06 6.012V8.91H814.49V10.602H812.06V14.652C812.06 15.276 812.18 15.714 812.42 15.966C812.66 16.218 812.99 16.344 813.41 16.344C813.638 16.344 813.83 16.326 813.986 16.29C814.154 16.254 814.316 16.206 814.472 16.146V17.928C814.268 18.012 814.04 18.072 813.788 18.108C813.548 18.156 813.314 18.18 813.086 18.18ZM818.912 18.18C818.132 18.18 817.412 18.09 816.752 17.91C816.104 17.718 815.558 17.454 815.114 17.118L815.744 15.606C816.2 15.918 816.704 16.158 817.256 16.326C817.808 16.494 818.366 16.578 818.93 16.578C819.53 16.578 819.974 16.476 820.262 16.272C820.562 16.068 820.712 15.792 820.712 15.444C820.712 15.168 820.616 14.952 820.424 14.796C820.244 14.628 819.95 14.502 819.542 14.418L817.742 14.076C816.974 13.908 816.386 13.62 815.978 13.212C815.582 12.804 815.384 12.27 815.384 11.61C815.384 11.046 815.534 10.548 815.834 10.116C816.146 9.684 816.584 9.348 817.148 9.108C817.724 8.856 818.396 8.73 819.164 8.73C819.836 8.73 820.466 8.82 821.054 9C821.654 9.18 822.158 9.45 822.566 9.81L821.918 11.268C821.546 10.968 821.12 10.734 820.64 10.566C820.16 10.398 819.692 10.314 819.236 10.314C818.612 10.314 818.156 10.428 817.868 10.656C817.58 10.872 817.436 11.154 817.436 11.502C817.436 11.766 817.52 11.988 817.688 12.168C817.868 12.336 818.144 12.462 818.516 12.546L820.316 12.888C821.12 13.044 821.726 13.32 822.134 13.716C822.554 14.1 822.764 14.628 822.764 15.3C822.764 15.9 822.602 16.416 822.278 16.848C821.954 17.28 821.504 17.61 820.928 17.838C820.352 18.066 819.68 18.18 818.912 18.18Z" fill="#111111"/>
<path fill-rule="evenodd" clip-rule="evenodd" d="M9.73572 2C12.28 2 15.006 2.53629 16.9531 4.27285L14.5387 6.67339C13.2925 5.49866 11.4492 4.91129 9.73572 4.91129C5.97124 4.91129 3.42697 7.77151 3.42697 11.3723C3.42697 15.1008 5.81547 18.0887 9.76168 18.0887C11.1377 18.0887 12.7473 17.8589 14.0454 17.1438V12.879H10.2809V9.96774H17.3166V19.2124C14.8762 20.4892 12.306 21 9.73572 21C4.0241 21 0 17.1694 0 11.5766C0 5.88172 3.94621 2 9.73572 2ZM26.5531 7.97581C30.4993 7.97581 32.3945 10.9126 32.3945 14.6156V15.4839H22.8924C23.1001 17.246 24.4501 18.3952 26.2415 18.3952C27.6435 18.3952 28.7079 17.8078 29.5906 16.7352L31.8233 18.3952C30.4733 20.0296 28.6819 20.8468 26.5531 20.8468C22.7367 20.8468 19.777 18.2419 19.777 14.4113C19.777 10.6062 22.7367 7.97581 26.5531 7.97581ZM22.8924 13.1855H29.2791C29.2531 11.2702 27.929 10.2742 26.0857 10.2742C24.2424 10.2742 23.1261 11.4489 22.8924 13.1855ZM41.6309 7.97581C45.3435 7.97581 46.1743 10.8105 46.1743 12.7003V20.5403H43.0588V14.1815C43.0588 11.7298 42.254 10.7339 40.7742 10.7339C38.7751 10.7339 37.9184 12.164 37.9184 13.7984V20.5403H34.803V8.28226H37.7626V10.2487H37.8145C38.5674 8.63978 39.9953 7.97581 41.6309 7.97581ZM55.3588 7.97581C59.305 7.97581 61.2002 10.9126 61.2002 14.6156V15.4839H51.6982C51.9059 17.246 53.2559 18.3952 55.0473 18.3952C56.4492 18.3952 57.5136 17.8078 58.3964 16.7352L60.6291 18.3952C59.2791 20.0296 57.4877 20.8468 55.3588 20.8468C51.5424 20.8468 48.5827 18.2419 48.5827 14.4113C48.5827 10.6062 51.5424 7.97581 55.3588 7.97581ZM51.6982 13.1855H58.0848C58.0588 11.2702 56.7348 10.2742 54.8915 10.2742C53.0482 10.2742 51.9318 11.4489 51.6982 13.1855ZM67.8665 7.97581C69.8136 7.97581 71.4232 8.63978 72.3319 9.84005L70.255 11.6788C69.6319 10.836 68.853 10.4274 67.8145 10.4274C66.802 10.4274 65.9972 10.9382 65.9972 11.7298C65.9972 12.7258 67.3991 12.9046 68.9569 13.2621C70.878 13.6962 72.7213 14.3858 72.7213 16.914C72.7213 19.4933 70.4107 20.8468 67.3213 20.8468C65.4001 20.8468 63.7645 20.3616 62.4923 18.957L64.5693 17.0417C65.6337 18.1909 66.4645 18.5484 67.529 18.5484C68.6713 18.5484 69.6059 17.9866 69.6059 17.1438C69.6059 15.9691 68.1001 15.7648 66.5164 15.4073C64.8289 15.0242 62.8818 14.4368 62.8818 11.9341C62.8818 8.94624 65.7376 7.97581 67.8665 7.97581ZM76.2202 2.28091C77.3625 2.28091 78.2452 3.07258 78.2452 4.11962C78.2452 5.21774 77.3366 5.95833 76.2202 5.95833C75.1038 5.95833 74.2471 5.11559 74.2471 4.11962C74.2471 3.12366 75.1038 2.28091 76.2202 2.28091ZM74.6885 8.28226H77.8039V20.5403H74.6885V8.28226ZM85.1451 7.97581C87.0923 7.97581 88.7019 8.63978 89.6106 9.84005L87.5336 11.6788C86.9105 10.836 86.1317 10.4274 85.0932 10.4274C84.0807 10.4274 83.2759 10.9382 83.2759 11.7298C83.2759 12.7258 84.6778 12.9046 86.2355 13.2621C88.1567 13.6962 90 14.3858 90 16.914C90 19.4933 87.6894 20.8468 84.5999 20.8468C82.6787 20.8468 81.0431 20.3616 79.771 18.957L81.848 17.0417C82.9124 18.1909 83.7432 18.5484 84.8076 18.5484C85.9499 18.5484 86.8846 17.9866 86.8846 17.1438C86.8846 15.9691 85.3788 15.7648 83.7951 15.4073C82.1076 15.0242 80.1604 14.4368 80.1604 11.9341C80.1604 8.94624 83.0162 7.97581 85.1451 7.97581Z" fill="#111111"/>
</g>
<defs>
<filter id="filter0_d_0_152" x="1011" y="4" width="22.984" height="22.9841" filterUnits="userSpaceOnUse" color-interpolation-filters="sRGB">
<feFlood flood-opacity="0" result="BackgroundImageFix"/>
<feColorMatrix in="SourceAlpha" type="matrix" values="0 0 0 0 0 0 0 0 0 0 0 0 0 0 0 0 0 0 127 0" result="hardAlpha"/>
<feOffset dy="4"/>
<feGaussianBlur stdDeviation="2"/>
<feComposite in2="hardAlpha" operator="out"/>
<feColorMatrix type="matrix" values="0 0 0 0 0 0 0 0 0 0 0 0 0 0 0 0 0 0 0.25 0"/>
<feBlend mode="normal" in2="BackgroundImageFix" result="effect1_dropShadow_0_152"/>
<feBlend mode="normal" in="SourceGraphic" in2="effect1_dropShadow_0_152" result="shape"/>
</filter>
<clipPath id="clip0_0_152">
<rect width="1110" height="23" fill="white"/>
</clipPath>
</defs>
</svg>
