<svg width="99" height="19" viewBox="0 0 99 19" fill="none" xmlns="http://www.w3.org/2000/svg">
<path fill-rule="evenodd" clip-rule="evenodd" d="M47.6875 0H53.3125C55.9009 0 58 2.09906 58 4.6875V10.3125C58 12.9009 55.9009 15 53.3125 15H47.6875C45.0991 15 43 12.9009 43 10.3125V4.6875C43 2.09906 45.0991 0 47.6875 0ZM53.3125 13.5938C55.1219 13.5938 56.5938 12.1219 56.5938 10.3125V4.6875C56.5938 2.87812 55.1219 1.40625 53.3125 1.40625H47.6875C45.8781 1.40625 44.4062 2.87812 44.4062 4.6875V10.3125C44.4062 12.1219 45.8781 13.5938 47.6875 13.5938H53.3125Z" fill="black"/>
<path fill-rule="evenodd" clip-rule="evenodd" d="M46.7585 7.51709C46.7585 5.44143 48.4414 3.75854 50.5171 3.75854C52.5927 3.75854 54.2756 5.44143 54.2756 7.51709C54.2756 9.59274 52.5927 11.2756 50.5171 11.2756C48.4414 11.2756 46.7585 9.59274 46.7585 7.51709ZM48.168 7.51709C48.168 8.8119 49.2223 9.86618 50.5171 9.86618C51.8119 9.86618 52.8662 8.8119 52.8662 7.51709C52.8662 6.22133 51.8119 5.168 50.5171 5.168C49.2223 5.168 48.168 6.22133 48.168 7.51709Z" fill="black"/>
<path fill-rule="evenodd" clip-rule="evenodd" d="M54.5319 3.96354C54.8056 3.96354 55.0274 3.74173 55.0274 3.4681C55.0274 3.19447 54.8056 2.97266 54.5319 2.97266C54.2583 2.97266 54.0365 3.19447 54.0365 3.4681C54.0365 3.74173 54.2583 3.96354 54.5319 3.96354Z" fill="black"/>
<path fill-rule="evenodd" clip-rule="evenodd" d="M99 1.65598C98.3375 1.937 97.6266 2.12758 96.8797 2.21266C97.6424 1.7755 98.2261 1.0821 98.5028 0.258405C97.7874 0.663244 96.9978 0.957209 96.1565 1.11657C95.4827 0.428545 94.5244 0 93.4615 0C91.4222 0 89.7688 1.58278 89.7688 3.5338C89.7688 3.81051 89.8014 4.08076 89.8644 4.3392C86.796 4.19167 84.0751 2.7844 82.2541 0.646013C81.9358 1.16716 81.7547 1.7744 81.7547 2.42261C81.7547 3.64901 82.4071 4.73111 83.3969 5.3642C82.7918 5.34483 82.2226 5.18548 81.7244 4.9206V4.96474C81.7244 6.67673 82.9976 8.10553 84.6859 8.43072C84.3766 8.51039 84.0504 8.55454 83.713 8.55454C83.4745 8.55454 83.2439 8.53193 83.0179 8.48886C83.488 9.89398 84.8513 10.9158 86.4665 10.9438C85.2033 11.8913 83.6106 12.4544 81.8807 12.4544C81.5826 12.4544 81.2891 12.4372 81 12.406C82.6343 13.4106 84.5746 13.9963 86.6599 13.9963C93.4525 13.9963 97.1655 8.61054 97.1655 3.93974L97.1531 3.48214C97.8786 2.98681 98.5062 2.36447 99 1.65598Z" fill="black"/>
<g filter="url(#filter0_d_0_153)">
<path fill-rule="evenodd" clip-rule="evenodd" d="M17.9795 3.73131C17.3095 2.58352 16.4007 1.67474 15.2529 1.00479C14.1049 0.334886 12.8516 0 11.4922 0C10.133 0 8.87937 0.334886 7.73155 1.00479C6.58366 1.67464 5.67487 2.58342 5.0049 3.73131C4.33489 4.87927 4 6.13288 4 7.49204C4 8.85126 4.33499 10.1047 5.00479 11.2527C5.67474 12.4005 6.58352 13.3093 7.73141 13.9793C8.87937 14.6492 10.1329 14.9841 11.4921 14.9841C12.8513 14.9841 14.105 14.6492 15.2529 13.9793C16.4007 13.3095 17.3094 12.4005 17.9794 11.2527C18.6492 10.1048 18.984 8.8512 18.984 7.49204C18.984 6.13274 18.6492 4.8791 17.9795 3.73131ZM11.4921 1.09261C13.1049 1.09261 14.513 1.62588 15.7161 2.69238L15.5941 2.86298C15.5454 2.93139 15.4234 3.06294 15.2284 3.25814C15.0333 3.45318 14.8203 3.63864 14.5895 3.8142C14.3584 3.98983 14.0448 4.18978 13.648 4.41417C13.2512 4.63855 12.8285 4.8354 12.3797 5.00446C11.6319 3.62559 10.832 2.38343 9.98005 1.2779C10.4939 1.15435 10.9979 1.09261 11.4921 1.09261ZM8.76071 1.70706C7.86313 2.12973 7.10233 2.73465 6.47804 3.52141C5.85375 4.30835 5.43754 5.19294 5.22932 6.17491C7.19339 6.17501 9.1639 5.91485 11.141 5.39457C10.3605 4.00937 9.56712 2.78013 8.76071 1.70706ZM5.52187 9.79934C5.23567 9.06772 5.09261 8.29855 5.09261 7.49204C5.09261 7.40095 5.09596 7.33264 5.10238 7.28716C7.45677 7.28716 9.64526 6.98484 11.6678 6.37989C11.876 6.78308 12.0483 7.14403 12.1849 7.46279C12.1586 7.47577 12.1166 7.49033 12.058 7.50663C11.9993 7.52289 11.9571 7.53417 11.9309 7.54076L11.57 7.66756C11.3228 7.75866 10.9992 7.91477 10.5994 8.13577C10.1994 8.35712 9.7751 8.62035 9.32633 8.92609C8.87756 9.23187 8.41417 9.6367 7.93622 10.1409C7.4582 10.6449 7.05662 11.1861 6.73144 11.7649C6.21115 11.1861 5.808 10.5308 5.52187 9.79934ZM7.41436 12.4283C8.61105 13.4037 9.97027 13.8916 11.4921 13.8916C12.3507 13.8915 13.183 13.7225 13.9895 13.3841C13.7164 11.8168 13.2609 10.1973 12.6238 8.52591H12.6042L12.5847 8.53572C12.4807 8.57481 12.3409 8.62859 12.1652 8.69686C11.9895 8.76492 11.6612 8.92442 11.18 9.17464C10.6986 9.42533 10.2532 9.69195 9.84347 9.97466C9.43376 10.2576 9.00781 10.6301 8.56554 11.0918C8.12319 11.5535 7.7883 12.0347 7.56071 12.5357L7.41436 12.4283ZM16.8773 10.9503C16.396 11.695 15.7943 12.3114 15.0726 12.799C14.8058 11.3032 14.3898 9.77795 13.8238 8.22372C15.118 8.02189 16.4479 8.11637 17.8137 8.50644C17.6706 9.39092 17.3584 10.2057 16.8773 10.9503ZM17.5501 7.36042C17.6476 7.37658 17.729 7.39134 17.7941 7.40426L17.8917 7.42374C17.8724 5.91478 17.3877 4.58163 16.4382 3.424L16.4284 3.43384C16.3699 3.51178 16.3082 3.59139 16.2431 3.67285C16.1778 3.75417 16.0366 3.8988 15.8186 4.10689C15.6008 4.31494 15.3699 4.51169 15.126 4.69722C14.882 4.88255 14.557 5.09378 14.1507 5.33122C13.744 5.56866 13.3163 5.77831 12.8675 5.96054C13.0302 6.30513 13.1734 6.61408 13.2971 6.88722C13.3097 6.92624 13.331 6.98323 13.3602 7.05796C13.3895 7.13279 13.4138 7.18647 13.4335 7.21903C13.6676 7.18657 13.9097 7.16354 14.1601 7.15073C14.4103 7.13781 14.6495 7.13122 14.8769 7.13122C15.1046 7.13122 15.3289 7.13614 15.5502 7.14584C15.7712 7.15568 15.9794 7.16856 16.1744 7.1849C16.3697 7.20116 16.5534 7.219 16.7258 7.23851C16.898 7.25805 17.0543 7.27913 17.194 7.30189C17.3338 7.32465 17.4526 7.34426 17.5501 7.36042Z" fill="black"/>
</g>
<defs>
<filter id="filter0_d_0_153" x="0" y="0" width="22.984" height="22.9841" filterUnits="userSpaceOnUse" color-interpolation-filters="sRGB">
<feFlood flood-opacity="0" result="BackgroundImageFix"/>
<feColorMatrix in="SourceAlpha" type="matrix" values="0 0 0 0 0 0 0 0 0 0 0 0 0 0 0 0 0 0 127 0" result="hardAlpha"/>
<feOffset dy="4"/>
<feGaussianBlur stdDeviation="2"/>
<feComposite in2="hardAlpha" operator="out"/>
<feColorMatrix type="matrix" values="0 0 0 0 0 0 0 0 0 0 0 0 0 0 0 0 0 0 0.25 0"/>
<feBlend mode="normal" in2="BackgroundImageFix" result="effect1_dropShadow_0_153"/>
<feBlend mode="normal" in="SourceGraphic" in2="effect1_dropShadow_0_153" result="shape"/>
</filter>
</defs>
</svg>
